<svg id="Layer_1" data-name="Layer 1" xmlns="http://www.w3.org/2000/svg" viewBox="0 0 442.68 295.19"><defs><style>.cls-1{fill:#0f9cd8;}</style></defs><path class="cls-1" d="M142.07,412.22a20.9,20.9,0,0,1-1.64,8.27,22,22,0,0,1-4.41,6.72,20.07,20.07,0,0,1-6.63,4.52,20.93,20.93,0,0,1-8.27,1.63H98.07a20.85,20.85,0,0,1-8.26-1.63,19.87,19.87,0,0,1-6.63-4.52,21.68,21.68,0,0,1-4.42-6.72,20.9,20.9,0,0,1-1.63-8.27V399.54a1.7,1.7,0,0,1,1.92-1.92H94.8c1.41,0,2.12.65,2.12,1.92v14.61h25.55V387.44L78.47,355c-.26-.39-.55-.87-.86-1.44a3.63,3.63,0,0,1-.48-1.83V320a20.85,20.85,0,0,1,1.63-8.26A21.72,21.72,0,0,1,83.18,305a19.84,19.84,0,0,1,6.63-4.51,20.85,20.85,0,0,1,8.26-1.64h23.05a20.94,20.94,0,0,1,8.27,1.64A20,20,0,0,1,136,305a22.06,22.06,0,0,1,4.41,6.73,20.85,20.85,0,0,1,1.64,8.26v12.68a1.7,1.7,0,0,1-1.92,1.92H124.39a1.7,1.7,0,0,1-1.92-1.92v-14.6H96.92v26.51l43.61,32.47a3.86,3.86,0,0,1,1.54,3.27Z" transform="translate(-77.13 -151.05)"/><path class="cls-1" d="M165.12,300.79a1.7,1.7,0,0,1,1.92-1.93h16a1.7,1.7,0,0,1,1.92,1.93V316c0,1.42-.64,2.12-1.92,2.12H167c-1.28,0-1.92-.7-1.92-2.12Zm0,33a1.7,1.7,0,0,1,1.92-1.92h16a1.7,1.7,0,0,1,1.92,1.92v97.61a1.7,1.7,0,0,1-1.92,1.92H167a1.7,1.7,0,0,1-1.92-1.92Z" transform="translate(-77.13 -151.05)"/><path class="cls-1" d="M272.91,412.22a20.9,20.9,0,0,1-1.63,8.27,22,22,0,0,1-4.42,6.72,20.07,20.07,0,0,1-6.63,4.52,20.88,20.88,0,0,1-8.26,1.63H228.91a20.85,20.85,0,0,1-8.26-1.63,20.07,20.07,0,0,1-6.63-4.52,21.86,21.86,0,0,1-4.42-6.72,20.9,20.9,0,0,1-1.63-8.27V399.54a1.7,1.7,0,0,1,1.92-1.92h15.76c1.4,0,2.11.65,2.11,1.92v14.61h25.55V387.44l-44-32.47c-.25-.39-.54-.87-.86-1.44a3.73,3.73,0,0,1-.48-1.83V320a20.85,20.85,0,0,1,1.63-8.26A21.9,21.9,0,0,1,214,305a20,20,0,0,1,6.63-4.51,20.85,20.85,0,0,1,8.26-1.64H252a20.89,20.89,0,0,1,8.26,1.64,20,20,0,0,1,6.63,4.51,22.09,22.09,0,0,1,4.42,6.73,20.85,20.85,0,0,1,1.63,8.26v12.68A1.7,1.7,0,0,1,271,334.6H255.23a1.7,1.7,0,0,1-1.92-1.92v-14.6H227.76v26.51l43.61,32.47a3.84,3.84,0,0,1,1.54,3.27Z" transform="translate(-77.13 -151.05)"/><path class="cls-1" d="M350.34,316c0,1.42-.64,2.12-1.92,2.12H328.63V431.44a1.7,1.7,0,0,1-1.92,1.92H311a1.7,1.7,0,0,1-1.92-1.92V318.08H289.24c-1.28,0-1.92-.7-1.92-2.12V300.79a1.7,1.7,0,0,1,1.92-1.93h59.18a1.7,1.7,0,0,1,1.92,1.93Z" transform="translate(-77.13 -151.05)"/><path class="cls-1" d="M431.81,431.44a1.7,1.7,0,0,1-1.92,1.92H413.94a1.7,1.7,0,0,1-1.92-1.92V375.53H386.46v55.91c0,1.28-.7,1.92-2.11,1.92H368.59a1.7,1.7,0,0,1-1.92-1.92V320a21,21,0,0,1,21.14-21.14h22.86a20.85,20.85,0,0,1,8.26,1.64,20.91,20.91,0,0,1,11.24,11.24,20.85,20.85,0,0,1,1.64,8.26ZM412,318.08H386.46v38.43H412Z" transform="translate(-77.13 -151.05)"/><path class="cls-1" d="M519.8,412.22a20.9,20.9,0,0,1-1.63,8.27,21.86,21.86,0,0,1-4.42,6.72,20.07,20.07,0,0,1-6.63,4.52,20.85,20.85,0,0,1-8.26,1.63H475.8a20.88,20.88,0,0,1-8.26-1.63,20.07,20.07,0,0,1-6.63-4.52,22,22,0,0,1-4.42-6.72,20.9,20.9,0,0,1-1.63-8.27V399.54a1.7,1.7,0,0,1,1.92-1.92h15.76c1.41,0,2.11.65,2.11,1.92v14.61h25.56V387.44l-44-32.47q-.39-.59-.87-1.44a3.73,3.73,0,0,1-.48-1.83V320a20.85,20.85,0,0,1,1.63-8.26,22.09,22.09,0,0,1,4.42-6.73,20,20,0,0,1,6.63-4.51,20.89,20.89,0,0,1,8.26-1.64h23.06a20.85,20.85,0,0,1,8.26,1.64,20,20,0,0,1,6.63,4.51,21.9,21.9,0,0,1,4.42,6.73A20.85,20.85,0,0,1,519.8,320v12.68a1.7,1.7,0,0,1-1.92,1.92H502.13a1.7,1.7,0,0,1-1.92-1.92v-14.6H474.65v26.51l43.62,32.47a3.86,3.86,0,0,1,1.53,3.27Z" transform="translate(-77.13 -151.05)"/><path class="cls-1" d="M493.77,444.32a1.7,1.7,0,0,1-1.92,1.92H479.94a1.7,1.7,0,0,1-1.93-1.92V416.07a1.7,1.7,0,0,1,1.93-1.92h15.75c1.41,0,2.11.65,2.11,1.92Z" transform="translate(-77.13 -151.05)"/><path class="cls-1" d="M405.06,151.05a10.19,10.19,0,0,0-10.18,10.19v85.22H308.62V161.24a10.19,10.19,0,0,0-10.18-10.19H192.66v.08c-.26,0-.52-.08-.79-.08a10.19,10.19,0,0,0-10.19,10.19v95.41a10.19,10.19,0,0,0,20.37,0V171.42h86.2v85.23a10.19,10.19,0,0,0,10.19,10.18c.16,0,.32,0,.49-.05v.05H404v-.1c.35,0,.68.1,1,.1a10.19,10.19,0,0,0,10.19-10.18V161.24A10.19,10.19,0,0,0,405.06,151.05Z" transform="translate(-77.13 -151.05)"/></svg>